<svg width="30" height="30" viewBox="0 0 30 30" fill="none" xmlns="http://www.w3.org/2000/svg">
<g clip-path="url(#clip0_1066_794)">
<path d="M29.9997 14.1363V30H15.0222C12.0959 29.9986 9.23394 29.1413 6.78881 27.5337C4.34368 25.9261 2.42215 23.6385 1.26092 20.9525C0.0996933 18.2665 -0.25053 15.2995 0.253391 12.4169C0.757313 9.53436 2.09337 6.86215 4.097 4.72943C6.10063 2.59671 8.68432 1.09661 11.5298 0.413923C14.3754 -0.268769 17.3584 -0.104245 20.1116 0.887232C22.8648 1.87871 25.2678 3.65383 27.0248 5.99396C28.7817 8.33409 29.8158 11.137 29.9997 14.0575V14.1363ZM16.2497 8.75H8.74966V11.25H16.2497V8.75ZM21.2497 13.75H8.74966V16.25H21.2497V13.75ZM21.2497 18.75H8.74966V21.25H21.2497V18.75Z" fill="#4D4D4D"/>
</g>
<defs>
<clipPath id="clip0_1066_794">
<rect width="30" height="30" fill="white"/>
</clipPath>
</defs>
</svg>
