<svg width="27" height="27" viewBox="0 0 27 27" fill="none" xmlns="http://www.w3.org/2000/svg">
<path id="Vector" d="M27 7.07401C27.001 6.89634 26.9669 6.72022 26.8998 6.55574C26.8326 6.39126 26.7336 6.24166 26.6085 6.11551L20.8845 0.391522C20.7583 0.266402 20.6087 0.167413 20.4443 0.100231C20.2798 0.0330491 20.1037 -0.00100464 19.926 2.25643e-05C19.7483 -0.00100464 19.5722 0.0330491 19.4077 0.100231C19.2432 0.167413 19.0936 0.266402 18.9675 0.391522L15.147 4.21202L0.391522 18.9675C0.266402 19.0936 0.167413 19.2432 0.100231 19.4077C0.0330491 19.5722 -0.00100464 19.7483 2.25643e-05 19.926V25.65C2.25643e-05 26.008 0.142254 26.3514 0.395428 26.6046C0.648601 26.8577 0.991979 27 1.35002 27H7.07401C7.26291 27.0103 7.45187 26.9807 7.62862 26.9133C7.80537 26.8458 7.96597 26.742 8.10001 26.6085L22.7745 11.853L26.6085 8.10001C26.7317 7.96917 26.8321 7.81858 26.9055 7.65451C26.9185 7.5469 26.9185 7.43812 26.9055 7.33051C26.9118 7.26767 26.9118 7.20435 26.9055 7.14151L27 7.07401ZM6.52051 24.3H2.70002V20.4795L16.1055 7.07401L19.926 10.8945L6.52051 24.3ZM21.8295 8.99101L18.009 5.17051L19.926 3.26702L23.733 7.07401L21.8295 8.99101Z" fill="white"/>
</svg>
