<svg width="30" height="30" viewBox="0 0 30 30" fill="none" xmlns="http://www.w3.org/2000/svg">
<g clip-path="url(#clip0_1066_789)">
<path d="M6.1386 27.5C6.78981 27.5 7.41434 27.2366 7.8748 26.7678C8.33527 26.2989 8.59396 25.663 8.59396 25V17.5C8.59396 16.837 8.33527 16.2011 7.8748 15.7322C7.41434 15.2634 6.78981 15 6.1386 15V13.75C6.1386 11.4294 7.04401 9.20376 8.65566 7.56281C10.2673 5.92187 12.4532 5 14.7324 5C17.0116 5 19.1974 5.92187 20.8091 7.56281C22.4207 9.20376 23.3261 11.4294 23.3261 13.75V15C22.6749 15 22.0504 15.2634 21.5899 15.7322C21.1294 16.2011 20.8708 16.837 20.8708 17.5V25H17.1877C16.8621 25 16.5498 25.1317 16.3196 25.3661C16.0894 25.6005 15.96 25.9185 15.96 26.25C15.96 26.5815 16.0894 26.8995 16.3196 27.1339C16.5498 27.3683 16.8621 27.5 17.1877 27.5H23.3261C24.733 27.4957 26.0958 26.9995 27.1863 26.0943C28.2768 25.1892 29.0289 23.9301 29.3165 22.5278C29.6041 21.1255 29.4099 19.6652 28.7664 18.3913C28.1229 17.1174 27.0691 16.1073 25.7815 15.53V13.75C25.7815 10.7663 24.6174 7.90483 22.5453 5.79505C20.4731 3.68526 17.6628 2.5 14.7324 2.5C11.802 2.5 8.99157 3.68526 6.91946 5.79505C4.84735 7.90483 3.68325 10.7663 3.68325 13.75V15.53C2.39561 16.1073 1.34182 17.1174 0.698295 18.3913C0.054772 19.6652 -0.139424 21.1255 0.148217 22.5278C0.435858 23.9301 1.18788 25.1892 2.27838 26.0943C3.36888 26.9995 4.73167 27.4957 6.1386 27.5Z" fill="#4D4D4D"/>
</g>
<defs>
<clipPath id="clip0_1066_789">
<rect width="29.4643" height="30" fill="white"/>
</clipPath>
</defs>
</svg>
