<svg width="30" height="30" viewBox="0 0 30 30" fill="none" xmlns="http://www.w3.org/2000/svg">
<g clip-path="url(#clip0_1066_799)">
<path d="M30 15C30 17.9667 29.1203 20.8668 27.472 23.3336C25.8238 25.8003 23.4811 27.7229 20.7403 28.8582C17.9994 29.9935 14.9834 30.2906 12.0737 29.7118C9.16394 29.133 6.49119 27.7044 4.3934 25.6066C2.29562 23.5088 0.867006 20.8361 0.288228 17.9264C-0.290551 15.0166 0.00649929 12.0006 1.14181 9.25975C2.27713 6.51886 4.19972 4.17618 6.66645 2.52796C9.13319 0.879735 12.0333 0 15 0C18.9769 0.00430135 22.7897 1.58604 25.6019 4.39815C28.414 7.21026 29.9957 11.0231 30 15ZM17.5 15C17.5 14.337 17.2366 13.7011 16.7678 13.2322C16.2989 12.7634 15.663 12.5 15 12.5H12.5V15H15V23.75H17.5V15ZM15 6.25C14.6292 6.25 14.2667 6.35997 13.9583 6.566C13.65 6.77202 13.4096 7.06486 13.2677 7.40747C13.1258 7.75008 13.0887 8.12708 13.161 8.4908C13.2334 8.85451 13.412 9.1886 13.6742 9.45083C13.9364 9.71305 14.2705 9.89163 14.6342 9.96397C14.9979 10.0363 15.3749 9.99919 15.7175 9.85728C16.0602 9.71536 16.353 9.47504 16.559 9.1667C16.765 8.85835 16.875 8.49584 16.875 8.125C16.875 7.62772 16.6775 7.15081 16.3258 6.79918C15.9742 6.44754 15.4973 6.25 15 6.25Z" fill="#4D4D4D"/>
</g>
<defs>
<clipPath id="clip0_1066_799">
<rect width="30" height="30" fill="white"/>
</clipPath>
</defs>
</svg>
