<svg width="30" height="30" viewBox="0 0 30 30" fill="none" xmlns="http://www.w3.org/2000/svg">
<path d="M4.15492 22.5807H25.8439C26.5114 22.5807 27.169 22.4352 27.7613 22.1563C28.3535 21.8775 28.8628 21.4735 29.2462 20.9787C29.6296 20.4839 29.8757 19.9127 29.9637 19.3136C30.0517 18.7144 29.9791 18.1048 29.7519 17.5364L25.8009 7.64483C25.1261 5.44661 23.6748 3.50903 21.6688 2.12845C19.6629 0.747861 17.2128 0.000266049 14.6932 1.2762e-09V1.2762e-09C12.0704 -3.71231e-05 9.52596 0.80988 7.48004 2.29603C5.43411 3.78218 4.00903 5.85569 3.44008 8.17422L0.184528 17.7083C-0.00714871 18.2712 -0.0502394 18.867 0.0587227 19.4477C0.167685 20.0284 0.425657 20.5779 0.811883 21.0518C1.19811 21.5258 1.7018 21.9111 2.28244 22.1766C2.86307 22.4422 3.50444 22.5806 4.15492 22.5807Z" fill="#4D4D4D"/>
<path d="M8.21484 24.8379C8.53269 26.2945 9.38189 27.6041 10.6186 28.5447C11.8552 29.4853 13.4033 29.9992 15.0006 29.9992C16.5978 29.9992 18.1459 29.4853 19.3826 28.5447C20.6192 27.6041 21.4684 26.2945 21.7863 24.8379H8.21484Z" fill="#4D4D4D"/>
</svg>
