<svg width="62" height="30" viewBox="0 0 62 30" fill="none" xmlns="http://www.w3.org/2000/svg">
<path d="M0.733333 11.8213V0.450667H7.66667V2.25333H11.688V0.450667H18.552V2.25333H22.5733V0.450667H29.5067V11.8213H25V13H29.5067V18.3733H0.733333V13H5.24V11.8213H0.733333ZM15.12 2.77333C15.12 5.512 10.648 7.00267 1.98133 7.072C10.648 7.14133 15.12 8.56267 15.12 11.3013C15.12 8.56267 19.5573 7.10667 28.224 7.03733C19.5573 6.968 15.12 5.512 15.12 2.77333ZM12.1733 11.8213V13H18.0667V11.8213H12.1733ZM29.68 24.5787C29.68 28.392 27.704 29.7787 23.544 29.7787H6.696C2.536 29.7787 0.56 28.392 0.56 24.5787C0.56 20.7653 2.536 19.3787 6.696 19.3787H23.544C27.704 19.3787 29.68 20.7653 29.68 24.5787ZM15.12 29.3973C15.12 26 19.5573 24.648 28.224 24.5787C19.5573 24.5093 15.12 23.192 15.12 19.76C15.12 23.192 10.648 24.5093 1.98133 24.5787C10.648 24.648 15.12 26 15.12 29.3973ZM32.9625 11.8213V0.450667H39.8958V2.25333H43.9172V0.450667H50.7812V2.25333H54.8025V0.450667H61.7358V11.8213H57.2292V13H61.7358V18.3733H32.9625V13H37.4692V11.8213H32.9625ZM47.3492 2.77333C47.3492 5.512 42.8772 7.00267 34.2105 7.072C42.8772 7.14133 47.3492 8.56267 47.3492 11.3013C47.3492 8.56267 51.7865 7.10667 60.4532 7.03733C51.7865 6.968 47.3492 5.512 47.3492 2.77333ZM44.4025 11.8213V13H50.2958V11.8213H44.4025ZM61.9092 24.5787C61.9092 28.392 59.9332 29.7787 55.7732 29.7787H38.9252C34.7652 29.7787 32.7892 28.392 32.7892 24.5787C32.7892 20.7653 34.7652 19.3787 38.9252 19.3787H55.7732C59.9332 19.3787 61.9092 20.7653 61.9092 24.5787ZM47.3492 29.3973C47.3492 26 51.7865 24.648 60.4532 24.5787C51.7865 24.5093 47.3492 23.192 47.3492 19.76C47.3492 23.192 42.8772 24.5093 34.2105 24.5787C42.8772 24.648 47.3492 26 47.3492 29.3973Z" fill="white"/>
</svg>
