<svg width="30" height="30" viewBox="0 0 30 30" fill="none" xmlns="http://www.w3.org/2000/svg">
<g clip-path="url(#clip0_1137_260)">
<path d="M26.25 15C26.2497 14.3103 26.187 13.6221 26.0625 12.9437L29.8663 10.75L26.1163 4.25L22.3113 6.44875C21.2607 5.54991 20.0535 4.85242 18.75 4.39125V0H11.25V4.39125C9.94661 4.85242 8.73936 5.54991 7.68879 6.44875L3.88379 4.25L0.133789 10.75L3.93754 12.9437C3.68768 14.3032 3.68768 15.6968 3.93754 17.0563L0.133789 19.25L3.88379 25.75L7.68879 23.5525C8.73945 24.4509 9.9467 25.148 11.25 25.6087V30H18.75V25.6087C20.0535 25.1476 21.2607 24.4501 22.3113 23.5513L26.1163 25.75L29.8663 19.25L26.0625 17.0563C26.187 16.3779 26.2497 15.6897 26.25 15ZM18.75 15C18.75 15.7417 18.5301 16.4667 18.118 17.0834C17.706 17.7001 17.1203 18.1807 16.4351 18.4645C15.7499 18.7484 14.9959 18.8226 14.2684 18.6779C13.541 18.5333 12.8728 18.1761 12.3484 17.6517C11.8239 17.1272 11.4668 16.459 11.3221 15.7316C11.1774 15.0042 11.2517 14.2502 11.5355 13.5649C11.8193 12.8797 12.3 12.294 12.9166 11.882C13.5333 11.4699 14.2584 11.25 15 11.25C15.9946 11.25 16.9484 11.6451 17.6517 12.3483C18.355 13.0516 18.75 14.0054 18.75 15Z" fill="#4D4D4D"/>
</g>
<defs>
<clipPath id="clip0_1137_260">
<rect width="30" height="30" fill="white"/>
</clipPath>
</defs>
</svg>
