<svg width="28" height="28" viewBox="0 0 28 28" fill="none" xmlns="http://www.w3.org/2000/svg">
<path id="Vector" d="M22.4018 16.8181C21.5749 16.8235 20.7595 17.0119 20.0142 17.3696C19.2689 17.7272 18.6121 18.2454 18.0912 18.8867L10.9535 15.602C11.2891 14.5758 11.2891 13.4694 10.9535 12.4432L18.0912 9.15847C18.9332 10.1732 20.107 10.8582 21.4056 11.0927C22.7041 11.3272 24.0438 11.0961 25.1882 10.4401C26.3327 9.78407 27.2084 8.7454 27.6607 7.50738C28.113 6.26935 28.1129 4.91155 27.6603 3.67361C27.2078 2.43566 26.3319 1.39716 25.1874 0.741374C24.0428 0.0855898 22.703 -0.145317 21.4045 0.089406C20.1061 0.324129 18.9324 1.00939 18.0906 2.02426C17.2488 3.03912 16.793 4.31834 16.8036 5.63616C16.8078 5.96915 16.8406 6.30116 16.9016 6.62856L9.512 10.0251C8.72417 9.25572 7.72653 8.73567 6.64407 8.53008C5.5616 8.32449 4.44246 8.4425 3.42685 8.86932C2.41125 9.29614 1.54434 10.0128 0.934753 10.9295C0.325164 11.8462 0 12.9222 0 14.0226C0 15.123 0.325164 16.199 0.934753 17.1157C1.54434 18.0324 2.41125 18.7491 3.42685 19.1759C4.44246 19.6027 5.5616 19.7207 6.64407 19.5151C7.72653 19.3095 8.72417 18.7895 9.512 18.0201L16.9016 21.4166C16.8406 21.744 16.8078 22.0761 16.8036 22.409C16.8036 23.5148 17.132 24.5958 17.7471 25.5152C18.3622 26.4346 19.2366 27.1512 20.2595 27.5744C21.2824 27.9976 22.408 28.1083 23.494 27.8926C24.5799 27.6768 25.5774 27.1444 26.3603 26.3624C27.1432 25.5805 27.6764 24.5843 27.8924 23.4998C28.1084 22.4152 27.9976 21.2911 27.5739 20.2695C27.1501 19.2479 26.4326 18.3747 25.512 17.7603C24.5914 17.146 23.509 16.8181 22.4018 16.8181ZM22.4018 2.84068C22.9554 2.84068 23.4966 3.00464 23.9569 3.31181C24.4172 3.61898 24.776 4.05557 24.9878 4.56638C25.1997 5.07719 25.2551 5.63926 25.1471 6.18153C25.0391 6.7238 24.7725 7.22191 24.3811 7.61287C23.9896 8.00382 23.4909 8.27006 22.9479 8.37793C22.4049 8.48579 21.8421 8.43043 21.3307 8.21885C20.8192 8.00727 20.382 7.64896 20.0745 7.18925C19.7669 6.72953 19.6027 6.18906 19.6027 5.63616C19.6027 4.89476 19.8976 4.18371 20.4226 3.65946C20.9475 3.13521 21.6595 2.84068 22.4018 2.84068ZM5.60727 16.8181C5.05367 16.8181 4.51249 16.6541 4.05218 16.347C3.59188 16.0398 3.23311 15.6032 3.02125 15.0924C2.8094 14.5816 2.75396 14.0195 2.86197 13.4772C2.96997 12.935 3.23656 12.4369 3.62802 12.0459C4.01948 11.6549 4.51823 11.3887 5.0612 11.2808C5.60417 11.173 6.16697 11.2283 6.67844 11.4399C7.18991 11.6515 7.62706 12.0098 7.93463 12.4695C8.2422 12.9292 8.40636 13.4697 8.40636 14.0226C8.40636 14.764 8.11146 15.475 7.58653 15.9993C7.0616 16.5236 6.34964 16.8181 5.60727 16.8181ZM22.4018 25.2045C21.8482 25.2045 21.307 25.0406 20.8467 24.7334C20.3864 24.4262 20.0277 23.9896 19.8158 23.4788C19.6039 22.968 19.5485 22.4059 19.6565 21.8637C19.7645 21.3214 20.0311 20.8233 20.4226 20.4323C20.814 20.0414 21.3128 19.7751 21.8557 19.6673C22.3987 19.5594 22.9615 19.6148 23.473 19.8264C23.9844 20.0379 24.4216 20.3962 24.7292 20.856C25.0367 21.3157 25.2009 21.8561 25.2009 22.409C25.2009 23.1504 24.906 23.8615 24.3811 24.3857C23.8561 24.91 23.1442 25.2045 22.4018 25.2045Z" fill="white"/>
</svg>
