<svg width="24" height="24" viewBox="0 0 24 24" fill="none" xmlns="http://www.w3.org/2000/svg">
<path d="M12 4C7.6 4 4 7.6 4 12C4 16.4 7.6 20 12 20C16.4 20 20 16.4 20 12C20 7.6 16.4 4 12 4Z" fill="#DCDCDC"/>
<path d="M15.8589 8.79997C15.9528 8.71019 15.9999 8.60039 16 8.47056C15.9999 8.34073 15.9528 8.22896 15.8589 8.13524C15.769 8.04522 15.6592 8.00008 15.5294 8C15.3996 8.00008 15.2878 8.04522 15.1941 8.13524L12 11.3353L8.80003 8.13524C8.71022 8.04522 8.60038 8.00008 8.47058 8C8.34079 8.00008 8.22899 8.04522 8.13531 8.13524C8.04523 8.22896 8.00013 8.34073 8 8.47056C8.00013 8.60039 8.04523 8.71018 8.13531 8.79997L11.3353 12L8.13531 15.1941C8.04523 15.2878 8.00013 15.3996 8 15.5294C8.00013 15.6593 8.04523 15.7691 8.13531 15.8588C8.22899 15.9528 8.3408 15.9999 8.47058 16C8.60038 15.9999 8.71021 15.9528 8.80003 15.8588L12 12.6647L15.1941 15.8588C15.2878 15.9528 15.3996 15.9999 15.5294 16C15.6592 15.9999 15.769 15.9528 15.8589 15.8588C15.9528 15.7691 15.9999 15.6593 16 15.5294C15.9999 15.3996 15.9528 15.2878 15.8589 15.1941L12.6647 12L15.8589 8.79997Z" fill="white"/>
</svg>
