<svg width="30" height="30" viewBox="0 0 30 30" fill="none" xmlns="http://www.w3.org/2000/svg">
<g clip-path="url(#clip0_1066_804)">
<path d="M15 0C12.0333 0 9.13319 0.879735 6.66645 2.52796C4.19972 4.17618 2.27713 6.51886 1.14181 9.25975C0.00649929 12.0006 -0.290551 15.0166 0.288228 17.9264C0.867006 20.8361 2.29562 23.5088 4.39341 25.6066C6.49119 27.7044 9.16394 29.133 12.0737 29.7118C14.9834 30.2906 17.9994 29.9935 20.7403 28.8582C23.4812 27.7229 25.8238 25.8003 27.4721 23.3336C29.1203 20.8668 30 17.9667 30 15C29.9957 11.0231 28.414 7.21026 25.6019 4.39815C22.7897 1.58604 18.9769 0.00430135 15 0V0ZM15 26.25V20.8663C15 20.5762 14.8848 20.298 14.6797 20.0929C14.4745 19.8877 14.1963 19.7725 13.9063 19.7725H8.43751L3.75001 15.09C3.75001 15.06 3.75001 15.03 3.75001 15C3.74759 12.883 4.34329 10.8083 5.4685 9.01509C6.5937 7.22184 8.20262 5.78295 10.1099 4.8642C12.0172 3.94544 14.1452 3.58419 16.2488 3.82207C18.3524 4.05995 20.3461 4.88728 22 6.20875L21.5613 6.6475H17.3863V11.42H13.8063V15.1C13.8063 15.3901 13.9215 15.6683 14.1266 15.8734C14.3317 16.0785 14.6099 16.1938 14.9 16.1938H22.1588V17.375C22.1614 19.0607 22.7341 20.696 23.7838 22.015C22.7322 23.3358 21.3964 24.4025 19.8756 25.1358C18.3548 25.869 16.6883 26.2498 15 26.25V26.25Z" fill="#4D4D4D"/>
</g>
<defs>
<clipPath id="clip0_1066_804">
<rect width="30" height="30" fill="white"/>
</clipPath>
</defs>
</svg>
